<?xml version="1.0" encoding="utf-8"?>
<!-- Generator: Adobe Illustrator 25.2.3, SVG Export Plug-In . SVG Version: 6.00 Build 0)  -->
<svg version="1.1"
	 id="svg6113" inkscape:version="1.1 (c68e22c387, 2021-05-23)" sodipodi:docname="Owl.svg" xmlns:inkscape="http://www.inkscape.org/namespaces/inkscape" xmlns:sodipodi="http://sodipodi.sourceforge.net/DTD/sodipodi-0.dtd" xmlns:svg="http://www.w3.org/2000/svg"
	 xmlns="http://www.w3.org/2000/svg" xmlns:xlink="http://www.w3.org/1999/xlink" x="0px" y="0px" viewBox="0 0 1482.7 497.8"
	 style="enable-background:new 0 0 1482.7 497.8;" xml:space="preserve">
<style type="text/css">
	.st0{fill:#2B2B2B;}
	.st1{fill:#996C38;}
	.st2{fill:#FFFFFF;}
	.st3{fill:#6C4C28;}
	.st4{fill-rule:evenodd;clip-rule:evenodd;fill:#6C4C28;}
	.st5{fill-rule:evenodd;clip-rule:evenodd;fill:#FFFFFF;}
	.st6{fill-rule:evenodd;clip-rule:evenodd;fill:#E79C2D;}
	.st7{fill-rule:evenodd;clip-rule:evenodd;}
	.st8{fill-rule:evenodd;clip-rule:evenodd;fill:#EDA91A;stroke:#000000;stroke-width:1.1545;stroke-linecap:round;}
	.st9{fill:#EDA91A;}
</style>
<defs>
	
		<inkscape:path-effect  copytype="single_stretched" effect="skeletal" fuse_tolerance="0" hide_knot="false" id="path-effect1704" is_visible="true" lpeversion="1" normal_offset="0" pattern="m -138.02958,975.92564 c 0,-17.56631 14.25671,-31.82302 31.82302,-31.82302 17.566306,0 31.823019,14.25671 31.823019,31.82302 0,17.56631 -14.256713,31.82306 -31.823019,31.82306 -17.56631,0 -31.82302,-14.25675 -31.82302,-31.82306 z" prop_scale="0.0323378" prop_units="false" scale_y_rel="false" spacing="0" tang_offset="0" vertical_pattern="false">
		</inkscape:path-effect>
	
		<inkscape:path-effect  copytype="single_stretched" effect="skeletal" fuse_tolerance="0" hide_knot="false" id="path-effect1700" is_visible="true" lpeversion="1" normal_offset="0" pattern="m -138.02958,975.92564 c 0,-17.56631 14.25671,-31.82302 31.82302,-31.82302 17.566306,0 31.823019,14.25671 31.823019,31.82302 0,17.56631 -14.256713,31.82306 -31.823019,31.82306 -17.56631,0 -31.82302,-14.25675 -31.82302,-31.82306 z" prop_scale="0.0323378" prop_units="false" scale_y_rel="false" spacing="0" tang_offset="0" vertical_pattern="false">
		</inkscape:path-effect>
	
		<inkscape:path-effect  copytype="single_stretched" effect="skeletal" fuse_tolerance="0" hide_knot="false" id="path-effect1696" is_visible="true" lpeversion="1" normal_offset="0" pattern="m -109.28085,1008.4092 c 0,-11.8806 12.536522,-21.52282 27.983315,-21.52282 15.446787,0 27.983313,9.64222 27.983313,21.52282 0,11.8806 -12.536526,21.5228 -27.983313,21.5228 -15.446793,0 -27.983315,-9.6422 -27.983315,-21.5228 z" prop_scale="0.10121669" prop_units="false" scale_y_rel="false" spacing="0" tang_offset="0" vertical_pattern="false">
		</inkscape:path-effect>
	
		<inkscape:path-effect  copytype="single_stretched" effect="skeletal" fuse_tolerance="0" hide_knot="false" id="path-effect1692" is_visible="true" lpeversion="1" normal_offset="0" pattern="m -135.5555,976.81183 c 0,-17.56631 14.25671,-31.82302 31.82302,-31.82302 17.566308,0 31.823021,14.25671 31.823021,31.82302 0,17.56631 -14.256713,31.82307 -31.823021,31.82307 -17.56631,0 -31.82302,-14.25676 -31.82302,-31.82307 z" prop_scale="0.032337769" prop_units="false" scale_y_rel="false" spacing="0" tang_offset="0" vertical_pattern="false">
		</inkscape:path-effect>
	
		<inkscape:path-effect  copytype="single_stretched" effect="skeletal" fuse_tolerance="0" hide_knot="false" id="path-effect11994" is_visible="true" lpeversion="1" normal_offset="0" pattern="M 0,18.867925 C 0,8.4528302 8.4528302,0 18.867925,0 c 10.415094,0 18.867924,8.4528302 18.867924,18.867925 0,10.415094 -8.45283,18.867924 -18.867924,18.867924 C 8.4528302,37.735849 0,29.283019 0,18.867925 Z" prop_scale="0.032337769" prop_units="false" scale_y_rel="false" spacing="0" tang_offset="0" vertical_pattern="false">
		</inkscape:path-effect>
	
		<inkscape:path-effect  copytype="single_stretched" effect="skeletal" fuse_tolerance="0" hide_knot="false" id="path-effect11938" is_visible="true" lpeversion="1" normal_offset="0" pattern="m -573.83049,-707.08084 c 0,-18.88928 19.93214,-34.2197 44.4914,-34.2197 24.55925,0 44.4914,15.33042 44.4914,34.2197 0,18.88928 -19.93215,34.21971 -44.4914,34.21971 -24.55926,0 -44.4914,-15.33043 -44.4914,-34.21971 z" prop_scale="0.10121669" prop_units="false" scale_y_rel="false" spacing="0" tang_offset="0" vertical_pattern="false">
		</inkscape:path-effect>
	
		<inkscape:path-effect  copytype="single_stretched" effect="skeletal" fuse_tolerance="0" hide_knot="false" id="path-effect15385" is_visible="true" lpeversion="1" normal_offset="0" pattern="m -619.53885,-758.72731 c 0,-27.92913 22.66712,-50.59625 50.59625,-50.59625 27.92913,0 50.59625,22.66712 50.59625,50.59625 0,27.92913 -22.66712,50.59626 -50.59625,50.59626 -27.92913,0 -50.59625,-22.66713 -50.59625,-50.59626 z" prop_scale="0.0323378" prop_units="false" scale_y_rel="false" spacing="0" tang_offset="0" vertical_pattern="false">
		</inkscape:path-effect>
	
		<inkscape:path-effect  copytype="single_stretched" effect="skeletal" fuse_tolerance="0" hide_knot="false" id="path-effect15389" is_visible="true" lpeversion="1" normal_offset="0" pattern="m -619.53885,-758.72731 c 0,-27.92913 22.66712,-50.59625 50.59625,-50.59625 27.92913,0 50.59625,22.66712 50.59625,50.59625 0,27.92913 -22.66712,50.59626 -50.59625,50.59626 -27.92913,0 -50.59625,-22.66713 -50.59625,-50.59626 z" prop_scale="0.0323378" prop_units="false" scale_y_rel="false" spacing="0" tang_offset="0" vertical_pattern="false">
		</inkscape:path-effect>
</defs>
<sodipodi:namedview  bordercolor="#666666" borderopacity="1.0" id="namedview6115" inkscape:current-layer="layer1" inkscape:cx="237.59797" inkscape:cy="486.81758" inkscape:guide-bbox="true" inkscape:pagecheckerboard="0" inkscape:pageopacity="0.0" inkscape:pageshadow="2" inkscape:snap-global="true" inkscape:snap-smooth-nodes="true" inkscape:window-height="745" inkscape:window-maximized="1" inkscape:window-width="1366" inkscape:window-x="-8" inkscape:window-y="-8" inkscape:zoom="0.38720869" pagecolor="#ffffff" showgrid="false" showguides="true">
	</sodipodi:namedview>
<g>
	<path class="st0" d="M17.7,418c-0.8-15.2-1.9-27.6-3.1-37.2c19.6,8.9,37.4,13.3,53.4,13.3c6.4,0,12.4-1,17.9-2.9
		c5.5-1.9,9.6-4.7,12.3-8.2c2.6-3.5,4-7.5,4-11.9c0-3.4-0.6-6.4-1.9-9.1c-1.9-3.7-5.1-7.5-9.6-11.5c-5.7-5.5-15.9-14.5-30.6-27.1
		c-7-6.1-11.8-10.4-14.5-13c-6-5.7-10.6-10.8-13.8-15.4c-3.2-4.5-5.5-9.1-6.9-13.6c-1.4-4.5-2.1-9.3-2.1-14.4
		c0-9.4,2.6-18.2,7.9-26.5c5.2-8.2,13.1-14.7,23.5-19.3c10.4-4.6,23.6-7,39.5-7c14.3,0,30.4,1.8,48.3,5.2c0.5,10.4,1.5,22.3,3,35.7
		c-15.6-6-29.9-9-43.1-9c-9.8,0-17.8,2.2-24,6.7c-6.2,4.4-9.3,9.6-9.3,15.5c0,1.6,0.2,3.3,0.7,5c0.4,1.7,1.1,3.4,2,5.1
		c0.9,1.6,2.4,3.8,4.6,6.4c2.2,2.6,5.5,5.7,9.8,9.3c4.3,3.5,8,6.4,11,8.6l18.5,16.8c4.7,3.9,8.9,7.7,12.6,11.4
		c3.7,3.7,6.9,7.2,9.5,10.6c2.6,3.4,4.7,6.6,6.2,9.7c1.5,3.1,2.6,6.3,3.4,9.5c0.7,3.2,1.1,6.7,1.1,10.3c0,8.4-1.9,16.3-5.8,23.8
		c-3.9,7.4-9.5,13.6-16.8,18.4c-7.3,4.8-15.3,8.1-24,10c-8.7,1.8-17.9,2.8-27.6,2.8c-6.4,0-13.8-0.6-22.3-1.6
		C42.7,423.2,31.6,421.1,17.7,418z"/>
	<path class="st0" d="M271.1,391c-1.2,5.5-3.1,15.7-5.7,30.6c-8.4,1.9-15,3.1-19.8,3.6c-4.8,0.5-9.3,0.8-13.5,0.8
		c-7.4,0-14-0.7-19.9-2.1c-5.8-1.4-10.7-3.9-14.5-7.4c-3.8-3.5-6.4-7.7-7.7-12.4c-1.3-4.7-2-9.7-2-14.8c0-1.3,0-3,0.1-5.2
		c0.1-2.2,0.5-9.3,1.2-21.3l3.4-62.4h-21.6c0.5-6,0.9-15.6,1.3-28.9h22.6c0.6-5.8,1.2-15.6,1.8-29.5l17.7-3.4
		c3.7-0.7,10.9-2.3,21.5-4.9c-0.7,13.5-1.1,26.1-1.2,37.9h38.1c-0.7,13.5-1,23.1-1,28.9h-38.2c-2.1,40.7-3.2,64.2-3.2,70.6
		c0,6.2,0.7,11,2,14.4c1.3,3.4,3.5,5.8,6.5,7.3c3,1.5,6.2,2.2,9.6,2.2c2.5,0,5.1-0.2,7.9-0.6C259.4,393.9,264.2,392.8,271.1,391z"/>
	<path class="st0" d="M303.2,303.3c1.4-7.2,2.3-12.2,2.6-15.1c0.3-2.9,1-7.3,1.9-13.2c13.6-3.2,25.6-5.4,36-6.7
		c10.4-1.3,20.4-1.9,30.1-1.9c11,0,21.1,1.3,30.3,3.8c9.2,2.5,16.4,6.6,21.6,12.2c5.2,5.6,7.8,13.6,7.8,24.1
		c0,5.7-0.8,20.2-2.4,43.5c-1.6,23.3-2.5,47.4-2.8,72.3c-7.6-0.2-14.6-0.3-21-0.3c-6.1,0-13.3,0.1-21.5,0.3
		c1.3-12.1,2.4-26.1,3.2-42l2-37.3c-3.8,2.5-6.7,4.2-8.7,5.2c-2,1-4.3,1.9-6.8,2.8c-2.5,0.9-6.9,2.2-13.2,3.9
		c-6.3,1.7-11.4,3.3-15.2,4.6c-3.8,1.3-7.2,2.8-10.3,4.4c-3.1,1.6-5.6,3.5-7.7,5.5c-2.1,2-3.6,4.2-4.6,6.4s-1.4,4.7-1.4,7.3
		c0,4.2,1.2,7.8,3.7,10.9c2.4,3,5.5,5.2,9.2,6.4c3.7,1.2,8,1.8,13,1.8c3.2,0,6.6-0.2,10.1-0.8c3.5-0.5,8.3-1.7,14.3-3.7
		c-2.1,5.7-4.5,14.2-7.3,25.5c-7.1,1.2-12.7,1.9-16.9,2.2c-4.2,0.3-8.1,0.5-11.7,0.5c-12.6,0-22.9-1.7-31-5.1
		c-8.1-3.4-14.1-8.8-17.9-16.2c-3.8-7.4-5.8-14.8-5.8-22.3c0-4.3,0.7-8.5,2.2-12.7s3.7-8,6.6-11.5c2.9-3.5,6.6-6.9,11.2-10.1
		c4.6-3.2,11.2-6.4,19.9-9.4c8.7-3,20.2-6.1,34.5-9.2c3.8-0.8,7.7-1.8,11.8-2.9c4.1-1.1,7.4-2.3,9.8-3.4c2.5-1.1,4.6-2.5,6.4-4.3
		c1.8-1.7,3.1-3.6,4-5.5c0.9-1.9,1.3-3.8,1.3-5.8c0-3.9-1.3-7.2-3.8-9.9c-2.6-2.7-5.9-4.6-9.9-5.6c-4.1-1-8.5-1.6-13.4-1.6
		C345.3,290.3,325.2,294.6,303.2,303.3z"/>
	<path class="st0" d="M466,422.3c1.4-17,2.9-42.4,4.4-76.1c1.5-33.8,2.3-59.2,2.3-76.3c8.5,0.2,15.4,0.3,20.7,0.3
		c6.1,0,12.7-0.1,19.8-0.3L512,294c3.2-4.7,6.1-8.5,8.8-11.5c2.6-2.9,6.1-5.7,10.3-8.2c4.2-2.5,9.1-4.5,14.8-5.9
		c5.6-1.4,11.5-2.2,17.5-2.2c4.5,0,8.8,0.4,13,1.3c4.2,0.8,8,2,11.5,3.6c3.4,1.6,6.4,3.3,8.8,5.3c2.4,2,4.5,4.2,6.2,6.7
		c1.7,2.4,3.5,6.1,5.5,10.9c2.2-3.5,4.2-6.4,6.1-8.8c1.8-2.3,4.3-4.8,7.4-7.3c3.1-2.5,6.5-4.6,10.3-6.3c3.8-1.7,8.1-3,12.8-4
		c4.7-0.9,9.7-1.4,14.8-1.4c8.7,0,16.9,1.4,24.6,4.3c7.7,2.8,13.7,7.3,18.1,13.5c4.4,6.1,6.6,13.8,6.6,22.9c0,4.8-0.3,11.8-1,21.1
		c-0.7,9.3-1.5,24.5-2.5,45.5c-1,21-1.5,37.3-1.6,48.8c-7.3-0.2-13.8-0.3-19.4-0.3c-6.6,0-14.4,0.1-23.3,0.3
		c0.9-12.9,1.8-26.4,2.6-40.5l1.8-34.3c0.5-8.7,0.8-16,0.8-22c0-7.1-1.1-12.5-3.4-16.2c-2.2-3.7-5.1-6.3-8.5-7.8
		c-3.4-1.6-7.3-2.3-11.6-2.3c-4.5,0-8.6,0.9-12.2,2.6c-3.6,1.7-7,4.5-10.2,8.3c-3.1,3.8-5.6,8.3-7.3,13.3s-2.9,12.2-3.7,21.3
		c-0.8,9.1-1.4,21.2-1.9,36l-1,41.7c-8.3-0.2-15.2-0.3-20.7-0.3c-5.5,0-12.9,0.1-22.1,0.3c0.7-7.7,1.7-23.4,3-47.2
		c1.3-23.8,1.9-39.8,1.9-48.1c0-4.4-0.4-8.1-1-11.2c-0.7-3-2.1-5.9-4.3-8.7c-2.1-2.7-4.7-4.8-7.6-6.1c-2.9-1.3-6.2-1.9-10-1.9
		c-7,0-13.1,2.3-18.4,6.9c-5.3,4.6-9.2,10.7-11.6,18.4c-2.4,7.7-4.2,22.7-5.3,44.9c-1.1,22.2-1.6,39.9-1.6,53
		c-9.2-0.2-16.1-0.3-20.8-0.3C482.7,422,475.3,422.1,466,422.3z"/>
	<path class="st0" d="M736.2,491.1c2.5-27.9,4.8-64,6.8-108.4s3-80.4,3-108.1c19-3.4,33.7-5.6,44.1-6.7c10.4-1.1,20.7-1.6,31-1.6
		c13.5,0,25.9,1.6,37.1,4.8c11.2,3.2,20.2,8.5,27,16c6.7,7.5,11.7,16.2,15,26.1c3.2,9.9,4.9,20.2,4.9,31c0,10.9-1.5,21.4-4.6,31.5
		c-3.1,10.1-7.8,19.2-14.2,27.2c-6.4,8-13.8,13.9-22.2,17.5c-8.4,3.6-17.6,5.5-27.6,5.5c-5.9,0-11.7-0.7-17.4-2.1
		c-5.7-1.4-10.8-3.2-15.1-5.5c-4.3-2.3-7.9-4.6-10.7-7c-2.8-2.3-6.3-5.9-10.6-10.6l-2.3,65.2l-0.2,10.2c-0.1,1.3-0.2,6.3-0.2,15
		c-9.2-0.1-16.3-0.1-21.3-0.1L736.2,491.1z M787.3,302.3c-0.7,5.4-1.2,10-1.5,13.9l-0.9,16.6c-0.4,7.2-0.6,12.5-0.6,15.9
		c0,6.1,0.6,11.9,1.9,17.5c1.3,5.6,3.8,10.7,7.5,15.4c3.8,4.7,8.2,8.2,13.4,10.7c5.2,2.4,10.5,3.7,16,3.7c7.6,0,14.5-2.2,20.8-6.5
		c6.3-4.3,11.1-10.7,14.5-19.1c3.4-8.4,5.1-17.3,5.1-26.8c0-10.5-1.9-19.3-5.6-26.6c-3.8-7.2-8.8-12.5-15.1-15.8
		c-6.3-3.3-13.5-4.9-21.5-4.9C810.8,296.3,799.5,298.3,787.3,302.3z"/>
	<path class="st0" d="M975,422.3c1.2-11.1,2.4-25.6,3.6-43.5c1.2-17.9,2-32.1,2.2-42.7l-67.1-118.4c11.3,0.2,20.1,0.3,26.3,0.3
		c6,0,14-0.1,24-0.3c4.5,10.4,11,23.5,19.6,39.5c8.6,15.9,16,30.5,22.2,43.8l44.6-71.9c1.5-2.5,3.7-6.3,6.6-11.4
		c9.7,0.2,18.3,0.3,25.8,0.3c3.9,0,11.9-0.1,24.1-0.3L1025,339.3l-1.8,37.9c-0.6,11.2-1.1,26.2-1.4,45.1
		c-10.7-0.2-18.5-0.3-23.4-0.3C993.5,422,985.6,422.1,975,422.3z"/>
	<path class="st0" d="M1192.7,266.3c11.5,0,22.5,1.7,33,5.2c10.5,3.4,19.5,8.5,26.8,15.3c7.3,6.7,12.9,15,16.6,24.7
		c3.7,9.7,5.5,20,5.5,30.8c0,11.4-1.9,22.4-5.8,33c-3.9,10.6-9.5,19.8-16.9,27.5c-7.4,7.7-16.6,13.5-27.7,17.4
		c-11,3.8-22.8,5.8-35.3,5.8c-11.6,0-22.6-1.7-33-5.2c-10.4-3.4-19.4-8.6-26.8-15.5c-7.4-6.9-13-15.3-16.9-25.2
		c-3.8-9.9-5.8-20.2-5.8-31c0-11,1.7-21.5,5.2-31.5c3.5-10,9-18.9,16.4-26.7c7.4-7.8,17-13.8,28.6-18.1
		C1168.4,268.4,1180.4,266.3,1192.7,266.3z M1192.7,297.2c-8.7,0-16.4,2.1-23.2,6.4c-6.8,4.2-11.9,10.6-15.2,19s-5,17.5-5,27.4
		c0,8.7,1.4,16.4,4.1,23.2c2.7,6.8,7.2,12.3,13.4,16.5c6.2,4.2,13.6,6.3,22.2,6.3c8.8,0,16.4-2.2,23.1-6.5
		c6.6-4.3,11.6-10.7,14.9-19.2c3.3-8.4,5-17.8,5-28c0-8.3-1.3-15.8-3.9-22.6c-2.6-6.8-6.9-12.2-13.1-16.3
		C1208.9,299.2,1201.5,297.2,1192.7,297.2z"/>
	<path class="st0" d="M1455.1,422.3c-8.8-0.2-15.6-0.3-20.2-0.3c-5.9,0-12.6,0.1-20.1,0.3l0.3-24.9c-2.8,4.2-5.2,7.6-7.3,10.1
		s-4.8,5-8.2,7.5c-3.4,2.5-7.1,4.4-11.1,5.8s-8.6,2.6-13.7,3.6c-5.1,0.9-10.6,1.4-16.4,1.4c-11.2,0-20.9-1.6-29.2-4.9
		c-8.3-3.2-14.9-8.2-19.7-14.8c-4.8-6.6-7.3-16-7.3-28.3v-3.1l2.4-38.7l2.3-51c0.1-4.1,0.2-9.2,0.2-15.3c9.5,0.2,16.9,0.3,22.3,0.3
		c5.7,0,12.6-0.1,20.7-0.3l-5,68.3c-0.3,5.3-0.5,9.8-0.7,13.4c-0.2,3.6-0.2,6.3-0.2,7.9c0,7.2,1.1,13.2,3.2,17.9
		c2.1,4.7,5.9,8.4,11.2,10.9c5.3,2.5,11.1,3.7,17.1,3.7c5.8,0,11.3-1.1,16.5-3.3c4.7-2,8.7-4.8,12.1-8.4c3.3-3.6,6.2-8.4,8.5-14.5
		c1.7-4.4,3-10.5,3.9-18.3c0.7-5.5,1.3-14.9,1.9-28.3c0.8-16.2,1.4-32.6,1.7-49.3c9.9,0.2,17.5,0.3,22.7,0.3c5.9,0,12.6-0.1,20-0.3
		c-1.2,14.3-2.4,32.1-3.7,53.6s-2.2,39.1-2.7,53.1C1455.8,390.5,1455.4,405.7,1455.1,422.3z"/>
</g>
<g id="layer1" inkscape:groupmode="layer" inkscape:label="Image 1">
	<g id="g1693">
		<path id="path6197" sodipodi:nodetypes="ccccsccc" class="st1" d="M1257.7,72.4c0,0,9.6,14,5.1,33.8
			c27.3,46.3,16.8,107-70.5,182.2c-53.3-44-116.3-110.6-74.2-185.9c0,0-4.4-11,2.9-28.7s-14.7-60.3-14.7-60.3
			c73.3,50.1,126.9,33.7,161.3-0.6C1264.5,23.6,1259.4,34.9,1257.7,72.4z"/>
		<path id="path12123" sodipodi:nodetypes="ccsc" class="st2" d="M1129.8,112.1c0,0-3,84.8,60.3,120.5c0,0,60.3-16.2,63.2-121.3
			C1256.2,6.3,1129.8,112.1,1129.8,112.1L1129.8,112.1z"/>
		<path id="path5478" sodipodi:nodetypes="cccc" class="st3" d="M1265,110c0,0,7.1,40.8-10.3,109.3
			C1281.3,176.8,1281.3,140.4,1265,110L1265,110z"/>
		<ellipse id="ellipse12386" class="st4" cx="1220.1" cy="93.5" rx="44.6" ry="40.7"/>
		<ellipse id="ellipse12384" class="st4" cx="1160.1" cy="92.8" rx="44.6" ry="40.7"/>
		<ellipse id="ellipse5161" class="st5" cx="1217.1" cy="93" rx="39.4" ry="39"/>
		<path id="path956" class="st3" d="M1114.4,109.6c-19.2,40.3-8.9,78,13,110.8C1114.8,181.6,1114.4,118.2,1114.4,109.6z"/>
		<ellipse id="ellipse5159" class="st5" cx="1164.1" cy="92.3" rx="39.4" ry="39"/>
		<circle id="circle1685" class="st6" cx="1220.2" cy="93.7" r="23.5"/>
		<circle id="path1303" class="st7" cx="1220.2" cy="93.7" r="15.4"/>
		<ellipse id="circle1479" class="st5" cx="1220.2" cy="83.8" rx="6.1" ry="5.5"/>
		<circle id="circle2267" class="st6" cx="1161.4" cy="93" r="23.5"/>
		<circle id="circle2269" class="st7" cx="1161.4" cy="93" r="15.4"/>
		<ellipse id="ellipse2271" class="st5" cx="1161.4" cy="83" rx="6.1" ry="5.5"/>
		<ellipse id="path7952" class="st8" cx="1152.1" cy="266.8" rx="6.2" ry="14.3"/>
		<ellipse id="ellipse8102" class="st8" cx="1169.9" cy="266.8" rx="6.2" ry="14.3"/>
		<ellipse id="ellipse8550" class="st8" cx="1212.6" cy="266.8" rx="6.2" ry="14.3"/>
		<ellipse id="ellipse8020" class="st8" cx="1161.1" cy="266.8" rx="6.2" ry="14.3"/>
		<ellipse id="ellipse8554" class="st8" cx="1230.9" cy="266.8" rx="6.2" ry="14.3"/>
		<ellipse id="ellipse8552" class="st8" cx="1222.1" cy="266.8" rx="6.2" ry="14.3"/>
		<path id="path2873" sodipodi:nodetypes="csczcc" class="st3" d="M1106.3,13.6c11.6,14.6,20.1,30.6,44.7,39.6
			c4.8,1.8,41.7,25,41.3,31.6c2.9-8,18.3-20,40.7-33.7s29.1-24,34.6-38.2C1230.2,51,1179.4,57,1106.3,13.6z"/>
		<path id="path4223" sodipodi:nodetypes="cccc" class="st9" d="M1179.8,128.6l9.6,18.7l11.8-18.7
			C1201.1,128.6,1190.7,103.4,1179.8,128.6L1179.8,128.6z"/>
	</g>
</g>
</svg>
